# xmcd
#
# Track frame offsets:
#	150
#	9820
#	14306
#	27427
#	38479
#	50694
#	65250
#	76137
#	90340
#	101948
#	117761
#	129575
#	141957
#	157872
#	169123
#	183170
#	198028
#	211785
#
# Disc length: 2992 seconds
#
# Revision: 0
# Processed by: cddbd v1.5.2PL0 Copyright (c) Steve Scherf et al.
# Submitted via: EasyCDDAExtractor 16.0.6.1
#
DISCID=d50bae12
DTITLE=Συλλογικός δίσκος - Τα 45άρια 2.1
DYEAR=2000
DGENRE=Λαϊκή
TTITLE0=Μπιθικώτσης Γρηγόρης - Ένας αλήτης πέθανε
TTITLE1=Αναγνωστάκης Πέτρος-Κούρτη Ρία - Τι όμορφη που είσαι, όταν κλαις
TTITLE2=Καζαντζίδης Στέλιος - Όση γλύκα έχουν τα χείλη σου
TTITLE3=Ζαγοραίος Σπύρος-Ζαγοραίου Ζωή - Έχω μάθει, να πονώ
TTITLE4=Αγγελόπουλος Μανώλης-Καλδάρας Απόστολος - Όσο αξίζεις εσύ
TTITLE5=Διονυσίου Στράτος - Στον σταθμό του Μονάχου
TTITLE6=Μαρκάκης Μπάμπης-Καλάκη Ρούλα - Ποιος ξέρει απ' αγάπη
TTITLE7=Πανου Πόλυ-Χρηστάκης - Σβήσε το φως να κοιμηθούμε
TTITLE8=Μενιδιάτης Μιχάλης-Γκίκα Βούλα - Χριστέ και Παναγιά
TTITLE9=Λίντα Μαίρη-Καλδάρας Απόστολος - Το καινούργιο τ' αγοράκι μου
TTITLE10=Ζαγοραίος Σπύρος - Στης Λαρίσης το ποτάμι
TTITLE11=Σιναΐδης Θεόδωρος-Λαμπράκη Χαρούλα - Όταν σε νοιώθω κοντά μου
TTITLE12=Γαβαλάς Πάνος-Φινέτη Μπέμπα - Λιώνω, λιώνω
TTITLE13=Μαράντη Μαίρη - Της καρδιάς μου το κλειδί
TTITLE14=Αγγελόπουλος Μανώλης - Άντε στο καλό κυρά μου
TTITLE15=Γαβαλάς Πάνος-Κούρτη Ρία - Στην πόρτα σου
TTITLE16=Καναρίδης Μανώλης-Βασιλειάδης Βασ.-Ντάλμα Ρένα - Αγανάκτησα
TTITLE17=Περπινιάδης Βαγγέλης-Καλάκη Ρούλα - Σαν νύχτα χειμωνιάτικη
EXTD=
EXTT0=
EXTT1=
EXTT2=
EXTT3=
EXTT4=
EXTT5=
EXTT6=
EXTT7=
EXTT8=
EXTT9=
EXTT10=
EXTT11=
EXTT12=
EXTT13=
EXTT14=
EXTT15=
EXTT16=
EXTT17=
PLAYORDER=
